<svg version="1.1" id="Layer_1" xmlns="http://www.w3.org/2000/svg" xmlns:xlink="http://www.w3.org/1999/xlink" x="0px" y="0px"
	 width="100%" viewBox="0 0 64 64" enable-background="new 0 0 64 64" xml:space="preserve">
<path fill="#000000" opacity="1.000000" stroke="none" 
	d="
M45.000957,65.000000 
	C30.000774,65.000000 15.500795,65.000000 1.000611,65.000000 
	C1.000407,43.666969 1.000407,22.333935 1.000204,1.000677 
	C22.333002,1.000451 43.666004,1.000451 64.999252,1.000226 
	C64.999504,22.332975 64.999504,43.665951 64.999756,64.999466 
	C58.500385,65.000000 52.000774,65.000000 45.000957,65.000000 
M26.473385,21.776321 
	C36.223698,21.776321 45.974007,21.776321 55.700668,21.776321 
	C56.068169,15.747564 56.068169,15.747564 47.052071,16.021208 
	C40.090824,16.021208 33.129578,16.021208 26.165901,16.021208 
	C26.165901,17.996456 26.165901,19.485331 26.473385,21.776321 
M54.938580,44.490292 
	C54.639721,44.366432 54.340858,44.242569 53.111885,43.964043 
	C47.400383,44.014984 41.688881,44.065922 35.070309,44.019283 
	C32.153217,44.019283 29.236124,44.019283 26.313461,44.019283 
	C26.313461,46.285572 26.313461,48.002319 26.313461,49.838299 
	C28.737801,49.838299 30.854753,49.838299 33.904720,49.966869 
	C41.169800,49.966869 48.434883,49.966869 56.299374,49.966869 
	C55.829109,47.949539 55.481976,46.460423 54.938580,44.490292 
M43.487366,36.000141 
	C47.598351,36.000141 51.709332,36.000141 55.820316,36.000141 
	C56.190834,35.466408 56.561352,34.932674 56.931873,34.398941 
	C55.548717,32.935425 54.219704,30.270397 52.773537,30.205229 
	C44.007042,29.810184 35.213821,30.008394 26.300570,30.008394 
	C26.300570,32.212193 26.300570,33.927620 26.300570,36.000141 
	C31.888889,36.000141 37.190380,36.000141 43.487366,36.000141 
M17.020973,14.467365 
	C14.782549,14.795403 12.544125,15.123439 10.306338,15.455856 
	C9.936290,20.615812 12.059548,23.392488 16.072460,22.996462 
	C20.047842,22.604139 25.197218,15.254777 24.142181,9.943260 
	C21.706665,11.428118 19.641069,12.687447 17.020973,14.467365 
M10.034314,32.991787 
	C11.683165,36.046467 14.065496,38.075180 17.626099,36.701958 
	C21.731186,35.118744 25.152689,28.745285 24.280340,24.963245 
	C18.949821,24.086086 16.170641,31.563580 10.431152,29.311861 
	C10.288891,30.264864 10.146628,31.217865 10.034314,32.991787 
M12.000028,49.502106 
	C14.066731,49.751755 17.111162,50.979919 18.020521,50.071293 
	C20.988703,47.105503 26.376991,45.182873 24.496298,38.478279 
	C19.696217,40.464325 15.181501,42.332302 9.857764,44.535015 
	C10.192173,45.480221 10.804527,47.211044 12.000028,49.502106 
z"/>
<path fill="#9C34C2" opacity="1.000000" stroke="none" 
	d="
M42.989616,36.000141 
	C37.190380,36.000141 31.888889,36.000141 26.300570,36.000141 
	C26.300570,33.927620 26.300570,32.212193 26.300570,30.008394 
	C35.213821,30.008394 44.007042,29.810184 52.773537,30.205229 
	C54.219704,30.270397 55.548717,32.935425 56.931873,34.398941 
	C56.561352,34.932674 56.190834,35.466408 55.820316,36.000141 
	C51.709332,36.000141 47.598351,36.000141 42.989616,36.000141 
z"/>
<path fill="#852CA5" opacity="1.000000" stroke="none" 
	d="
M35.977379,44.116863 
	C41.688881,44.065922 47.400383,44.014984 53.730427,44.216602 
	C54.603493,44.648174 54.865448,44.815556 55.134842,44.971306 
	C55.481976,46.460423 55.829109,47.949539 56.299374,49.966869 
	C48.434883,49.966869 41.169800,49.966869 33.513214,49.582127 
	C34.073597,47.503880 35.025490,45.810371 35.977379,44.116863 
z"/>
<path fill="#37D0EE" opacity="1.000000" stroke="none" 
	d="
M17.298223,14.207069 
	C19.641069,12.687447 21.706665,11.428118 24.142181,9.943260 
	C25.197218,15.254777 20.047842,22.604139 16.072460,22.996462 
	C12.059548,23.392488 9.936290,20.615812 10.306019,15.453666 
	C12.544125,15.123439 14.782549,14.795403 17.298223,14.207069 
z"/>
<path fill="#37D0EE" opacity="1.000000" stroke="none" 
	d="
M10.019341,32.581329 
	C10.146628,31.217865 10.288891,30.264864 10.431152,29.311861 
	C16.170641,31.563580 18.949821,24.086086 24.280340,24.963245 
	C25.152689,28.745285 21.731186,35.118744 17.626099,36.701958 
	C14.065496,38.075180 11.683165,36.046467 10.019341,32.581329 
z"/>
<path fill="#37D0EE" opacity="1.000000" stroke="none" 
	d="
M11.708454,49.221985 
	C10.804527,47.211044 10.192173,45.480221 9.857764,44.535015 
	C15.181501,42.332302 19.696217,40.464325 24.496298,38.478279 
	C26.376991,45.182873 20.988703,47.105503 18.020521,50.071293 
	C17.111162,50.979919 14.066731,49.751755 11.708454,49.221985 
z"/>
<path fill="#BA70D4" opacity="1.000000" stroke="none" 
	d="
M26.165901,20.974205 
	C26.165901,19.485331 26.165901,17.996456 26.165901,16.021208 
	C33.129578,16.021208 40.090824,16.021208 47.441608,16.436031 
	C46.492107,20.056049 44.015606,21.136971 40.652943,21.034439 
	C35.827805,20.887318 30.995275,20.982477 26.165901,20.974205 
z"/>
<path fill="#9C34C2" opacity="1.000000" stroke="none" 
	d="
M26.319643,21.375263 
	C30.995275,20.982477 35.827805,20.887318 40.652943,21.034439 
	C44.015606,21.136971 46.492107,20.056049 47.903931,16.507290 
	C56.068169,15.747564 56.068169,15.747564 55.700668,21.776321 
	C45.974007,21.776321 36.223698,21.776321 26.319643,21.375263 
z"/>
<path fill="#9C34C1" opacity="1.000000" stroke="none" 
	d="
M35.523846,44.068073 
	C35.025490,45.810371 34.073597,47.503880 33.046707,49.517841 
	C30.854753,49.838299 28.737801,49.838299 26.313461,49.838299 
	C26.313461,48.002319 26.313461,46.285572 26.313461,44.019283 
	C29.236124,44.019283 32.153217,44.019283 35.523846,44.068073 
z"/>
<path fill="#9C34C1" opacity="1.000000" stroke="none" 
	d="
M55.036709,44.730797 
	C54.865448,44.815556 54.603493,44.648174 54.195484,44.293938 
	C54.340858,44.242569 54.639721,44.366432 55.036709,44.730797 
z"/>
</svg>